# xmcd
#
# Track frame offsets: 
#        150
#        18249
#        32330
#        43480
#        59811
#        71334
#        83589
#        96762
#        108398
#        122922
#        141790
#        158294
#
# Disc length: 2257 seconds
#
# Revision: 0
# Processed by: cddbd v1.5.1PL0 Copyright (c) Steve Scherf et al.
# Submitted via: ExactAudioCopy v0.95a3
#
DISCID=9708cf0c
DTITLE=Lewis and Donna Lamb - A Family Tradition
DYEAR=2004
DGENRE=Bluegrass
TTITLE0=Midway
TTITLE1=Molly Bonder
TTITLE2=Basket of Red
TTITLE3=Sad Mistake
TTITLE4=Skip-a-Long Jenny
TTITLE5=Bill Stafford
TTITLE6=Roustabout
TTITLE7=Fiddled All Night
TTITLE8=Petunia Rag
TTITLE9=Blacksmith Daughter
TTITLE10=Juniors Reel
TTITLE11=Under All is The Land
EXTD=
EXTT0=
EXTT1=
EXTT2=
EXTT3=
EXTT4=
EXTT5=
EXTT6=
EXTT7=
EXTT8=
EXTT9=
EXTT10=
EXTT11=
PLAYORDER=
